name C:\Users\u0101727\Documents\MyRepositories\paper-ad\trackingsimulations_3d\Results\TrackSim\IK_c5.mot
datacolumns 32
datarows 10
range 3.85000000 3.99400000
endheader
time	pelvis_tilt	pelvis_list	pelvis_rotation	pelvis_tx	pelvis_ty	pelvis_tz	hip_flexion_l	hip_adduction_l	hip_rotation_l	hip_flexion_r	hip_adduction_r	hip_rotation_r	knee_angle_l	knee_angle_r	ankle_angle_l	ankle_angle_r	subtalar_angle_l	subtalar_angle_r	lumbar_extension	lumbar_bending	lumbar_rotation	arm_flex_l	arm_add_l	arm_rot_l	arm_flex_r	arm_add_r	arm_rot_r	elbow_flex_l	elbow_flex_r	pro_sup_l	pro_sup_r	
          3.85000000	          0.29870674	         -3.01517421	          7.10813015	          0.02757751	          0.92245169	         -0.22394030	        -11.48451768	         -4.76479306	          1.36489850	         26.52111299	          4.43973804	         -7.54272564	        -36.10667061	        -22.75094078	         -4.20387814	         -6.00088401	         13.32402346	        -11.00113242	         -3.96246580	          5.51942845	         -8.62428391	         -1.76243533	        -14.53295483	         19.20427594	         -9.28496115	        -15.61409083	         14.50148979	         22.96920464	         11.49065459	         86.51662706	         86.51662706	
          3.86600000	          0.45775657	         -4.04966127	          6.94083219	          0.05129489	          0.92322721	         -0.22268999	         -9.51102074	         -5.99951680	          1.22559407	         25.60260794	          5.87563931	         -7.47251595	        -40.39436293	        -24.02908232	        -10.31294672	         -4.02541183	         11.95221776	        -11.16462498	         -3.76661754	          6.84869252	         -8.19033437	         -2.26190316	        -14.03123818	         19.48303445	         -9.05999924	        -15.91028495	         14.48153326	         21.88327002	         11.80908780	         86.51662706	         86.51662706	
          3.88200000	          0.65047979	         -4.89974203	          6.86217328	          0.07413948	          0.92455165	         -0.22168897	         -7.18744398	         -6.85083443	          1.79678960	         24.31714402	          7.06499813	         -7.50515632	        -44.73325009	        -24.71585135	        -15.47053321	         -2.01787852	         10.76174699	        -10.96804026	         -3.75225625	          7.96103686	         -7.77207415	         -2.62440630	        -13.59494350	         19.90609353	         -8.72934555	        -16.20554327	         14.34705390	         20.83931674	         12.32936066	         86.51662706	         86.51662706	
          3.89800000	          0.86143605	         -5.59491089	          6.87971548	          0.09604366	          0.92639658	         -0.22090426	         -4.54547738	         -7.36273667	          2.78799106	         22.75816652	          8.05311783	         -7.59523210	        -49.18161405	        -24.88253343	        -18.09281431	         -0.19330336	          9.73102657	        -10.59478697	         -3.89927712	          8.88462715	         -7.35854542	         -2.83818238	        -13.24026544	         20.47524983	         -8.31086647	        -16.50323162	         14.11760249	         19.88654929	         13.07882573	         86.51662706	         86.51662706	
          3.91400000	          1.08702689	         -6.11614270	          7.01394062	          0.11710768	          0.92880354	         -0.22033367	         -1.69335502	         -7.53717396	          4.00940279	         20.98090145	          8.82670246	         -7.72404916	        -53.41526986	        -24.61329236	        -19.13172593	          1.37075604	          8.06477805	        -10.12204926	         -4.17947928	          9.59385013	         -6.97366022	         -2.92705094	        -12.98564809	         21.15492383	         -7.84515840	        -16.79957612	         13.81830864	         19.06487454	         14.08723729	         86.51662706	         86.51662706	
          3.93000000	          1.30393398	         -6.40791009	          7.26212469	          0.13748525	          0.93176275	         -0.21995177	          1.33685036	         -7.33172875	          5.39109932	         19.05384580	          9.33193754	         -7.87896277	        -57.34820680	        -24.01739238	        -18.53473079	          2.69750608	          6.42566769	         -9.55838618	         -4.53792951	         10.01702326	         -6.63846105	         -2.93430944	        -12.84650039	         21.87280711	         -7.37135833	        -17.08262565	         13.47573120	         18.39637992	         15.36186525	         86.51662706	         86.51662706	
          3.94600000	          1.48441538	         -6.44964249	          7.58496270	          0.15737305	          0.93516533	         -0.21969170	          4.48170565	         -6.74906165	          6.79540682	         17.04277536	          9.55438443	         -8.05510830	        -60.80574277	        -23.19357342	        -16.78454936	          3.82393355	          5.05739061	         -8.89122593	         -4.90875107	         10.12251815	         -6.34619694	         -2.91772717	        -12.82337008	         22.53617365	         -6.91906120	        -17.34808164	         13.11003764	         17.89939266	         16.87662274	         86.51662706	         86.51662706	
          3.96200000	          1.59477748	         -6.25491205	          7.88876343	          0.17696573	          0.93883145	         -0.21941781	          7.66338285	         -5.84585216	          8.01786422	         15.01730888	          9.53014579	         -8.19827162	        -63.59020573	        -22.22711512	        -14.43848176	          4.76171158	          3.91035973	         -8.16388239	         -5.22923231	          9.91644554	         -6.03285945	         -2.93888456	        -12.90297953	         23.04457147	         -6.50641181	        -17.59869180	         12.73806594	         17.59390991	         18.57732793	         86.51662706	         86.51662706	
          3.97800000	          1.61880685	         -5.85040361	          8.06178546	          0.19639933	          0.94255300	         -0.21898190	         10.79478874	         -4.70315179	          8.88516896	         13.03584747	          9.30870678	         -8.22585335	        -65.57347087	        -21.20752171	        -11.76639145	          5.52679620	          2.97965366	         -7.44248980	         -5.47517071	          9.42293661	         -5.60449416	         -3.04164362	        -13.06351446	         23.30634450	         -6.13465828	        -17.84284112	         12.37340464	         17.49519383	         20.40052568	         86.51662706	         86.51662706	
          3.99400000	          1.55233703	         -5.28028242	          8.04109134	          0.21572425	          0.94611616	         -0.21831077	         13.81163519	         -3.42424948	          9.32937260	         11.15996331	          8.93107158	         -8.10101160	        -66.65819796	        -20.23269641	         -9.09272368	          6.15490080	          2.25854389	         -6.75400306	         -5.64350737	          8.69265341	         -5.01177609	         -3.24410589	        -13.27874931	         23.26423009	         -5.78676742	        -18.09350318	         12.02425614	         17.60230319	         22.29060277	         86.51662706	         86.51662706	
